<?xml version="1.0" standalone="no"?>
<!DOCTYPE svg PUBLIC "-//W3C//DTD SVG 20010904//EN"
 "http://www.w3.org/TR/2001/REC-SVG-20010904/DTD/svg10.dtd">
<svg version="1.0" xmlns="http://www.w3.org/2000/svg"
 width="960.000000pt" height="960.000000pt" viewBox="0 0 960.000000 960.000000"
 preserveAspectRatio="xMidYMid meet">
<metadata>
Created by potrace 1.15, written by Peter Selinger 2001-2017
</metadata>
<g transform="translate(0.000000,960.000000) scale(0.100000,-0.100000)"
fill="#000000" stroke="none">
<path d="M4600 8244 c-226 -19 -640 -96 -640 -119 0 -2 16 -37 35 -78 61 -128
68 -247 24 -381 -23 -67 -37 -92 -94 -160 -39 -49 -40 -51 -39 -128 1 -67 5
-82 27 -112 15 -19 43 -40 63 -46 46 -16 143 -7 209 17 l49 18 63 144 c34 79
83 176 108 216 91 147 228 261 458 382 152 79 173 94 262 175 l58 53 -34 7
c-37 9 -477 18 -549 12z"/>
<path d="M5552 8116 c-17 -22 -55 -70 -86 -106 -31 -36 -56 -73 -56 -82 0 -10
29 -50 65 -89 36 -39 75 -89 86 -110 l19 -39 38 15 c72 30 146 81 196 135 88
94 120 125 155 152 l35 26 -40 17 c-47 21 -189 68 -301 99 l-81 24 -30 -42z"/>
<path d="M3409 7912 c-171 -86 -361 -202 -484 -296 -22 -16 -99 -81 -172 -143
-401 -345 -703 -784 -896 -1303 -56 -151 -57 -137 15 -200 153 -132 273 -294
337 -455 74 -184 196 -354 365 -509 73 -67 103 -102 126 -149 39 -79 60 -192
60 -318 l0 -100 35 -15 c19 -7 39 -14 44 -14 6 0 39 25 73 56 35 31 83 67 108
79 118 60 284 53 408 -16 33 -19 61 -28 73 -24 33 11 66 67 94 160 35 115 72
188 129 255 25 30 46 62 46 71 0 10 -29 43 -64 74 -71 62 -126 136 -152 205
-34 89 -48 93 -247 71 -134 -15 -229 -6 -344 33 -216 73 -390 227 -437 386
-64 216 55 449 289 567 68 35 123 50 305 83 96 18 195 42 220 54 43 20 46 24
57 81 36 169 59 250 101 355 l47 115 -4 125 c-10 312 -7 391 17 451 13 31 37
76 55 99 70 91 77 104 77 137 0 40 -59 183 -76 183 -6 0 -99 -44 -205 -98z"/>
<path d="M6215 7721 c-23 -11 -64 -47 -99 -87 -32 -38 -89 -93 -125 -122 -56
-44 -214 -130 -312 -170 -24 -9 -26 -16 -32 -89 -3 -43 -17 -123 -31 -178 -13
-55 -34 -140 -46 -190 -28 -117 -86 -238 -145 -300 -60 -64 -65 -78 -75 -205
-9 -119 -35 -216 -86 -310 -19 -36 -48 -92 -64 -126 -31 -63 -60 -194 -60
-275 0 -129 -43 -230 -134 -318 -62 -58 -125 -97 -201 -121 -55 -17 -61 -23
-121 -116 -55 -86 -97 -123 -217 -188 -67 -38 -87 -59 -87 -93 0 -23 141 -202
172 -220 36 -19 50 -16 160 37 57 28 134 57 172 65 38 7 72 17 76 22 3 4 23
67 44 138 52 179 73 222 167 331 106 123 180 189 255 224 109 53 124 84 124
265 0 240 47 384 159 488 92 85 144 102 312 102 l135 0 75 -37 c158 -78 229
-170 373 -479 l53 -116 64 -22 c104 -35 142 -28 213 37 35 32 36 34 36 111 0
71 -3 84 -39 153 -27 51 -46 106 -60 174 -30 145 -35 156 -112 224 -101 90
-113 117 -115 270 -1 111 -5 135 -31 210 -17 47 -33 110 -37 140 -8 69 7 200
31 270 l19 55 -47 65 c-25 36 -59 88 -74 115 -105 192 -179 285 -227 285 -13
0 -41 -9 -63 -19z"/>
<path d="M5013 7670 c-129 -60 -251 -160 -307 -249 -15 -23 -54 -104 -87 -179
-72 -165 -115 -233 -174 -274 -106 -75 -292 -121 -469 -117 l-109 3 -24 -55
c-39 -87 -62 -165 -88 -297 -43 -218 -87 -281 -243 -355 -63 -29 -127 -48
-249 -73 -90 -19 -173 -34 -183 -34 -67 0 -189 -79 -211 -137 -19 -50 51 -122
177 -180 54 -25 69 -27 174 -27 63 1 135 6 160 12 80 20 251 -13 331 -64 56
-35 116 -111 159 -201 35 -73 45 -86 107 -129 37 -26 87 -65 110 -86 57 -51
88 -50 191 5 69 36 86 50 121 104 61 90 146 172 216 205 33 15 65 28 72 28 21
0 82 41 87 58 2 9 8 51 11 92 10 112 44 278 68 335 12 28 41 84 64 125 56 97
83 185 83 269 0 137 47 262 131 350 63 66 70 83 115 268 58 242 57 229 29 365
l-24 122 -68 67 c-37 37 -77 70 -88 73 -12 3 -45 -6 -82 -24z"/>
<path d="M6939 7087 c-14 -54 -7 -116 25 -207 18 -50 29 -111 35 -180 l9 -106
55 -57 c73 -75 121 -173 146 -303 14 -71 29 -116 51 -150 16 -27 38 -81 48
-121 l17 -71 48 -5 c64 -8 144 -53 179 -102 16 -22 69 -101 118 -175 49 -74
97 -144 107 -155 24 -27 121 -107 157 -129 l29 -18 -7 93 c-16 205 -72 469
-147 692 -118 351 -299 685 -532 979 -11 13 -41 20 -133 28 -65 6 -136 15
-156 20 -38 8 -38 8 -49 -33z"/>
<path d="M5973 5930 c-52 -21 -73 -107 -73 -306 0 -104 -4 -146 -20 -197 -40
-128 -142 -247 -263 -304 -50 -24 -82 -50 -143 -117 -43 -47 -81 -92 -85 -98
-4 -7 -28 -85 -54 -173 -56 -191 -70 -220 -131 -273 -52 -46 -121 -76 -217
-92 -80 -14 -178 -67 -191 -103 -8 -21 -3 -40 22 -95 18 -38 32 -74 32 -81 0
-7 3 -11 8 -9 4 2 43 21 86 43 76 38 85 40 170 40 77 0 100 -4 149 -27 61 -29
148 -105 192 -167 34 -50 68 -58 116 -26 130 85 331 126 464 95 22 -5 83 -12
135 -15 176 -11 298 -39 415 -95 44 -21 94 -41 112 -45 29 -6 33 -4 39 19 7
31 4 51 -29 177 -36 137 -50 278 -37 380 8 64 21 105 57 183 l48 101 0 141 0
141 -65 125 -64 125 -69 23 c-145 50 -200 108 -297 316 -89 189 -102 211 -139
255 -53 63 -109 83 -168 59z"/>
<path d="M1701 5543 c-55 -395 -35 -819 59 -1195 38 -152 70 -246 86 -252 28
-11 120 -6 168 8 52 16 78 36 225 180 119 116 151 171 158 276 8 101 -7 136
-84 200 -73 61 -207 215 -278 321 -60 90 -127 217 -159 303 -28 75 -136 236
-159 236 -2 0 -10 -35 -16 -77z"/>
<path d="M7215 5434 c-71 -61 -138 -111 -173 -130 -1 0 13 -34 33 -75 49 -106
69 -228 62 -394 -7 -149 -23 -217 -78 -327 -27 -54 -39 -90 -39 -120 0 -58 27
-205 51 -281 10 -34 22 -98 25 -142 4 -44 12 -89 19 -101 8 -11 37 -33 67 -47
29 -15 82 -42 117 -62 71 -39 92 -42 145 -20 19 8 68 20 109 26 l73 11 26 47
c15 26 45 67 67 92 43 50 89 166 141 364 57 213 83 371 104 622 l3 42 -51 11
c-114 24 -276 128 -392 252 -49 53 -145 187 -209 293 -9 14 -23 6 -100 -61z"/>
<path d="M3962 4587 c-12 -13 -31 -52 -43 -88 -27 -83 -43 -113 -91 -176 -47
-62 -129 -126 -205 -159 -105 -47 -259 -28 -353 41 -54 40 -78 34 -160 -40
-107 -96 -143 -107 -349 -103 -158 3 -169 2 -220 -21 -31 -14 -98 -64 -160
-118 -125 -111 -210 -157 -321 -175 -41 -6 -77 -13 -79 -14 -1 -2 21 -47 50
-101 393 -732 1033 -1273 1804 -1526 163 -54 320 -92 510 -123 162 -27 185
-29 480 -28 303 0 314 1 496 32 365 63 716 183 1005 343 409 227 754 529 1032
904 45 61 82 113 82 116 0 4 -35 9 -77 11 -88 6 -168 34 -275 99 -37 23 -96
50 -130 61 -57 18 -71 19 -145 8 -125 -18 -251 8 -398 83 -61 30 -186 57 -269
57 -33 0 -99 7 -146 15 -101 18 -148 8 -242 -49 -83 -51 -137 -66 -232 -66
-100 0 -193 26 -254 70 -23 16 -65 61 -94 100 -29 38 -56 70 -61 70 -5 0 -39
-18 -76 -40 -105 -61 -162 -80 -239 -80 -84 0 -133 22 -189 83 -45 48 -63 84
-94 184 -18 57 -26 67 -114 143 -109 92 -148 141 -235 295 -69 120 -118 196
-134 207 -21 14 -53 8 -74 -15z"/>
</g>
</svg>
