<?xml version="1.0" standalone="no"?>
<!DOCTYPE svg PUBLIC "-//W3C//DTD SVG 20010904//EN"
 "http://www.w3.org/TR/2001/REC-SVG-20010904/DTD/svg10.dtd">
<svg version="1.0" xmlns="http://www.w3.org/2000/svg"
 width="800.000000pt" height="250.000000pt" viewBox="0 0 800.000000 250.000000"
 preserveAspectRatio="xMidYMid meet">

<g transform="translate(0.000000,250.000000) scale(0.100000,-0.100000)"
fill="#000000" stroke="none">
<path d="M2880 2256 c-14 -8 -67 -28 -117 -46 -82 -29 -93 -35 -93 -56 0 -18
7 -25 28 -30 53 -13 52 -8 52 -286 0 -147 -4 -267 -10 -277 -5 -10 -23 -21
-40 -24 -23 -5 -30 -12 -30 -31 l0 -24 160 1 c151 0 160 1 160 19 0 11 -10 28
-22 38 -21 17 -23 28 -26 138 -3 95 0 126 12 151 22 42 57 64 90 55 37 -9 49
-63 44 -205 -3 -113 -4 -118 -30 -142 -52 -48 -34 -55 140 -53 147 1 157 2
157 20 0 17 -9 25 -55 46 -12 6 -16 38 -20 162 -5 146 -6 157 -32 195 -32 48
-80 73 -142 73 -56 0 -107 -20 -142 -56 l-27 -26 6 186 6 186 -22 0 c-12 -1
-33 -7 -47 -14z"/>
<path d="M3525 2253 c-16 -9 -66 -29 -110 -44 -44 -15 -84 -35 -89 -43 -12
-18 9 -46 33 -46 39 0 41 -14 41 -337 l0 -313 24 0 c13 0 29 7 36 15 7 8 27
15 45 15 18 0 49 -7 68 -15 48 -20 161 -19 222 1 55 19 114 73 147 136 18 34
23 59 23 123 0 87 -15 127 -63 173 -66 62 -189 82 -265 43 l-37 -19 0 164 c0
164 0 164 -22 164 -13 -1 -36 -8 -53 -17z m207 -371 c43 -42 45 -223 4 -304
-26 -53 -71 -70 -111 -44 l-25 16 0 159 c0 138 2 160 18 173 36 32 82 32 114
0z"/>
<path d="M5380 2256 c-14 -8 -67 -28 -117 -46 -82 -29 -93 -35 -93 -56 0 -18
7 -25 28 -30 53 -13 52 -8 52 -286 0 -147 -4 -267 -10 -277 -5 -10 -23 -21
-40 -24 -23 -5 -30 -12 -30 -31 l0 -24 160 1 c151 0 160 1 160 19 0 11 -10 28
-22 38 -21 17 -23 28 -26 138 -3 95 0 126 12 151 22 42 57 64 90 55 37 -9 49
-63 44 -205 -3 -113 -4 -118 -30 -142 -52 -48 -34 -55 140 -53 147 1 157 2
157 20 0 17 -9 25 -55 46 -12 6 -16 38 -20 162 -5 146 -6 157 -32 195 -32 48
-80 73 -142 73 -56 0 -107 -20 -142 -56 l-27 -26 6 186 6 186 -22 0 c-12 -1
-33 -7 -47 -14z"/>
<path d="M7655 2253 c-16 -9 -66 -29 -109 -44 -43 -15 -82 -33 -87 -40 -12
-20 1 -37 36 -49 36 -12 45 -35 45 -117 0 -39 -2 -44 -17 -38 -35 15 -144 17
-190 4 -68 -19 -136 -88 -157 -158 -20 -68 -20 -113 -1 -177 30 -103 111 -163
218 -164 61 0 87 9 125 43 l22 20 0 -27 c0 -38 21 -41 98 -17 37 11 86 25 110
31 34 9 42 15 42 34 0 18 -8 27 -30 35 l-30 10 0 335 0 336 -22 0 c-13 -1 -36
-8 -53 -17z m-166 -334 c44 -16 51 -40 51 -183 0 -111 -2 -126 -21 -150 -44
-56 -104 -53 -135 6 -14 26 -18 57 -17 138 0 117 17 174 55 190 30 12 30 12
67 -1z"/>
<path d="M1815 2230 c-41 -43 -41 -97 0 -140 39 -41 92 -42 137 -1 27 24 33
36 33 71 0 35 -6 47 -33 71 -45 41 -98 40 -137 -1z"/>
<path d="M250 2214 c0 -18 8 -25 38 -34 85 -23 86 -27 77 -318 -4 -134 -10
-256 -14 -271 -8 -27 -36 -46 -83 -56 -21 -4 -28 -11 -28 -29 l0 -23 155 0
155 -1 0 24 c0 18 -7 25 -27 30 -95 20 -97 27 -88 269 l7 196 261 -266 c240
-246 262 -266 291 -263 l31 3 7 330 8 330 25 23 c15 12 37 22 49 22 28 0 51
24 43 44 -5 12 -35 14 -159 13 -143 -2 -153 -3 -153 -21 0 -20 16 -32 55 -40
14 -3 34 -12 45 -20 19 -13 20 -27 22 -208 l3 -193 -238 241 -238 241 -122 0
c-122 1 -122 1 -122 -23z"/>
<path d="M1890 1965 c-30 -13 -79 -29 -108 -36 -58 -13 -79 -36 -59 -62 7 -8
21 -17 32 -19 36 -6 46 -45 42 -165 -3 -116 -13 -143 -48 -143 -19 0 -44 -34
-35 -49 3 -5 83 -8 178 -7 163 1 173 2 173 20 0 10 -8 23 -17 27 -10 5 -26 13
-35 18 -16 7 -18 30 -21 225 l-2 216 -23 -1 c-12 0 -47 -11 -77 -24z"/>
<path d="M4777 1955 c-54 -18 -103 -37 -109 -43 -16 -16 -3 -38 29 -54 l28
-13 3 -125 c3 -156 1 -165 -43 -180 -26 -9 -35 -17 -35 -34 l0 -23 180 0 180
-1 0 24 c0 19 -7 26 -30 31 -51 10 -60 34 -60 158 0 98 2 114 20 133 27 28 45
28 82 -3 65 -55 148 -19 148 64 -1 58 -38 91 -105 91 -43 0 -69 -12 -112 -53
l-33 -31 0 47 c0 58 -5 58 -143 12z"/>
<path d="M1305 1956 c-56 -25 -110 -81 -132 -135 -20 -47 -20 -146 -1 -191 40
-92 123 -150 228 -158 37 -2 84 -2 103 2 42 8 123 60 144 93 15 22 15 26 0 40
-14 14 -18 14 -43 -6 -36 -29 -121 -53 -160 -45 -55 10 -78 45 -82 124 l-4 69
158 3 159 3 -3 40 c-5 62 -48 124 -111 157 -72 38 -181 40 -256 4z m159 -39
c9 -7 20 -31 23 -54 5 -35 2 -43 -16 -53 -12 -6 -41 -10 -65 -8 l-43 3 12 49
c17 68 50 91 89 63z"/>
<path d="M2245 1969 c-142 -53 -180 -228 -64 -298 l30 -19 -42 -23 c-23 -13
-51 -36 -62 -50 -19 -26 -19 -27 1 -72 11 -25 30 -51 43 -57 22 -13 22 -13
-14 -32 -79 -40 -89 -116 -22 -174 49 -43 107 -58 207 -52 109 7 186 37 248
97 74 71 88 153 38 217 -34 43 -76 54 -200 54 -123 0 -158 6 -158 25 0 25 30
37 118 45 50 4 101 14 114 20 68 36 118 119 104 176 -6 21 -2 23 36 26 42 3
43 4 43 38 l0 35 -70 5 c-42 3 -84 13 -105 24 -41 23 -197 32 -245 15z m147
-63 c4 -6 8 -50 8 -98 0 -75 -3 -91 -20 -108 -37 -37 -67 -22 -81 40 -13 59
-1 148 23 172 20 20 55 17 70 -6z m84 -515 c46 -1 61 -19 44 -52 -16 -29 -51
-48 -111 -59 -78 -16 -147 -4 -181 30 -32 33 -35 53 -10 78 15 15 30 16 117
11 55 -4 119 -7 141 -8z"/>
<path d="M4220 1971 c-71 -23 -131 -74 -166 -141 -26 -49 -26 -162 0 -214 25
-50 73 -97 122 -121 57 -27 196 -33 264 -10 175 58 226 283 95 418 -52 54 -98
70 -200 74 -49 1 -101 -1 -115 -6z m134 -52 c15 -7 31 -27 38 -48 16 -47 16
-245 0 -292 -15 -44 -55 -65 -93 -50 -48 18 -54 35 -57 176 -4 145 8 198 50
215 31 12 33 12 62 -1z"/>
<path d="M6060 1971 c-71 -23 -131 -74 -166 -141 -26 -49 -26 -162 0 -214 25
-50 73 -97 122 -121 57 -27 196 -33 264 -10 175 58 226 283 95 418 -52 54 -98
70 -200 74 -49 1 -101 -1 -115 -6z m134 -52 c15 -7 31 -27 38 -48 16 -47 16
-245 0 -292 -15 -44 -55 -65 -93 -50 -48 18 -54 35 -57 176 -4 145 8 198 50
215 31 12 33 12 62 -1z"/>
<path d="M6700 1971 c-71 -23 -131 -74 -166 -141 -26 -49 -26 -162 0 -214 25
-50 73 -97 122 -121 57 -27 196 -33 264 -10 175 58 226 283 95 418 -52 54 -98
70 -200 74 -49 1 -101 -1 -115 -6z m134 -52 c15 -7 31 -27 38 -48 16 -47 16
-245 0 -292 -15 -44 -55 -65 -93 -50 -48 18 -54 35 -57 176 -4 145 8 198 50
215 31 12 33 12 62 -1z"/>
<path d="M1060 1138 c-82 -32 -170 -124 -221 -232 l-40 -85 -49 -7 c-87 -11
-94 -54 -9 -54 27 0 49 -2 49 -4 0 -22 -123 -563 -132 -579 -25 -49 -46 -43
-86 22 -43 69 -58 81 -103 81 -78 0 -117 -82 -68 -144 76 -97 258 -87 367 22
64 64 96 143 154 382 l52 219 66 3 c63 3 65 4 68 31 3 27 3 27 -57 27 -34 0
-61 4 -61 9 0 22 53 188 66 209 17 26 57 44 79 35 9 -3 28 -29 42 -57 30 -60
37 -66 81 -66 54 0 93 57 78 116 -8 29 -50 72 -84 85 -40 16 -134 9 -192 -13z"/>
<path d="M3180 1136 c-14 -8 -67 -28 -117 -46 -83 -29 -93 -35 -93 -57 0 -18
7 -25 30 -30 17 -3 35 -14 40 -24 6 -10 10 -128 10 -273 0 -218 -2 -257 -16
-270 -18 -19 -40 -21 -50 -5 -3 6 -19 9 -34 5 -47 -9 -51 7 -48 171 3 166 -5
196 -65 234 -28 17 -45 20 -127 17 -77 -3 -106 -9 -152 -30 -78 -36 -108 -68
-108 -113 0 -48 29 -75 80 -75 54 0 86 32 95 94 6 38 13 49 32 57 33 12 39 12
57 -7 17 -16 20 -60 10 -112 -6 -28 -11 -32 -75 -47 -90 -22 -180 -66 -207
-100 -46 -58 -18 -141 54 -165 58 -19 156 -9 194 21 l33 25 28 -28 c23 -24 36
-28 84 -28 30 0 72 7 92 15 21 9 39 11 42 6 3 -5 77 -9 164 -8 149 0 157 1
157 19 0 11 -10 28 -22 38 -18 14 -23 30 -26 89 -4 61 -2 70 11 65 19 -7 117
-119 117 -133 0 -6 -9 -20 -20 -31 -41 -41 -21 -48 151 -47 158 0 159 0 159
22 0 16 -9 26 -30 35 -32 13 -83 65 -177 181 l-63 77 43 34 c47 39 84 60 140
82 28 11 38 21 35 33 -3 16 -18 18 -131 20 -103 1 -129 -2 -134 -13 -7 -19 15
-44 38 -44 22 0 25 -19 7 -42 -7 -8 -42 -39 -78 -68 -56 -46 -66 -51 -69 -34
-2 10 -1 128 1 262 5 241 5 242 -16 242 -12 -1 -32 -7 -46 -14z m-460 -593 c0
-69 -9 -93 -38 -104 -37 -14 -72 12 -72 54 0 39 14 61 55 82 48 24 55 20 55
-32z"/>
<path d="M4385 1133 c-16 -9 -66 -29 -110 -44 -44 -15 -84 -35 -89 -43 -12
-18 9 -46 33 -46 39 0 41 -14 41 -337 l0 -313 24 0 c13 0 29 7 36 15 16 19 68
19 113 0 48 -20 161 -19 222 1 55 19 114 73 147 136 18 34 23 59 23 123 0 87
-15 127 -63 173 -66 62 -189 82 -265 43 l-37 -19 0 164 c0 164 0 164 -22 164
-13 -1 -36 -8 -53 -17z m207 -371 c43 -42 45 -223 4 -304 -26 -53 -71 -70
-111 -44 l-25 16 0 159 c0 138 2 160 18 173 36 32 82 32 114 0z"/>
<path d="M5630 1128 c-25 -11 -76 -31 -115 -43 -61 -20 -70 -26 -73 -49 -3
-22 1 -27 28 -32 17 -4 35 -15 40 -25 6 -10 10 -126 10 -266 0 -269 -3 -284
-55 -297 -18 -5 -25 -13 -25 -30 l0 -23 175 -1 175 0 0 23 c0 16 -8 26 -22 31
-13 3 -31 14 -41 22 -17 15 -18 39 -16 362 2 392 8 369 -81 328z"/>
<path d="M5905 1110 c-22 -23 -30 -40 -30 -70 0 -55 44 -100 97 -100 57 0 103
44 103 100 0 35 -6 47 -33 71 -45 41 -98 40 -137 -1z"/>
<path d="M1353 1104 c-7 -20 15 -44 41 -44 12 0 32 -7 44 -16 18 -12 22 -25
22 -65 0 -99 -42 -504 -54 -523 -7 -11 -35 -27 -62 -35 -37 -12 -49 -21 -49
-36 0 -19 7 -20 153 -22 124 -1 154 1 159 13 7 20 -15 44 -41 44 -12 0 -32 7
-45 17 l-24 16 8 161 c4 89 10 195 14 236 l6 75 116 -285 c115 -284 115 -285
147 -288 39 -4 31 -20 163 325 l104 272 6 -117 c4 -64 8 -174 10 -243 4 -143
0 -152 -62 -169 -31 -9 -39 -15 -39 -34 l0 -24 220 0 220 0 0 24 c0 18 -7 25
-27 30 -56 12 -63 16 -74 35 -5 11 -16 138 -23 282 -16 300 -15 304 52 325 33
11 42 19 42 37 l0 23 -163 0 -163 0 -90 -234 c-49 -129 -91 -234 -94 -234 -3
0 -48 105 -100 234 l-95 234 -158 0 c-126 0 -160 -3 -164 -14z"/>
<path d="M5980 845 c-30 -13 -79 -29 -108 -36 -58 -13 -79 -36 -59 -62 7 -8
21 -17 32 -19 36 -6 46 -45 42 -165 -3 -116 -13 -143 -48 -143 -19 0 -44 -34
-35 -49 3 -5 83 -8 178 -7 163 1 173 2 173 20 0 10 -8 23 -17 27 -10 5 -26 13
-35 18 -16 7 -18 30 -21 225 l-2 216 -23 -1 c-12 0 -47 -11 -77 -24z"/>
<path d="M312 839 c-99 -38 -180 -141 -202 -257 -16 -88 5 -152 67 -199 34
-26 43 -28 132 -28 111 0 154 17 225 88 61 62 88 126 94 222 3 72 1 84 -20
115 -54 79 -178 104 -296 59z m148 -44 c16 -20 7 -92 -25 -193 -41 -129 -114
-222 -150 -192 -47 39 36 307 115 374 36 30 43 31 60 11z"/>
<path d="M3805 836 c-56 -25 -110 -81 -132 -135 -20 -47 -20 -146 -1 -191 40
-92 123 -150 228 -158 37 -2 84 -2 103 2 42 8 123 60 144 93 15 22 15 26 0 40
-14 14 -18 14 -43 -6 -36 -29 -121 -53 -160 -45 -55 10 -78 45 -82 124 l-4 69
158 3 159 3 -3 40 c-5 62 -48 124 -111 157 -72 38 -181 40 -256 4z m159 -39
c9 -7 20 -31 23 -54 5 -35 2 -43 -16 -53 -12 -6 -41 -10 -65 -8 l-43 3 12 49
c17 68 50 91 89 63z"/>
<path d="M5045 836 c-56 -25 -110 -81 -132 -135 -20 -47 -20 -146 -1 -191 40
-92 123 -150 228 -158 37 -2 84 -2 103 2 42 8 123 60 144 93 15 22 15 26 0 40
-14 14 -18 14 -43 -6 -36 -29 -121 -53 -160 -45 -55 10 -78 45 -82 124 l-4 69
158 3 159 3 -3 40 c-5 62 -48 124 -111 157 -72 38 -181 40 -256 4z m159 -39
c9 -7 20 -31 23 -54 5 -35 2 -43 -16 -53 -12 -6 -41 -10 -65 -8 l-43 3 12 49
c17 68 50 91 89 63z"/>
<path d="M6335 836 c-56 -25 -110 -81 -132 -135 -20 -47 -20 -146 -1 -191 40
-92 123 -150 228 -158 37 -2 84 -2 103 2 42 8 123 60 144 93 15 22 15 26 0 40
-14 14 -18 14 -43 -6 -36 -29 -121 -53 -160 -45 -55 10 -78 45 -82 124 l-4 69
158 3 159 3 -3 40 c-5 62 -48 124 -111 157 -72 38 -181 40 -256 4z m159 -39
c9 -7 20 -31 23 -54 5 -35 2 -43 -16 -53 -12 -6 -41 -10 -65 -8 l-43 3 12 49
c17 68 50 91 89 63z"/>
<path d="M7515 836 c-56 -25 -110 -81 -132 -135 -20 -47 -20 -146 -1 -191 40
-92 123 -150 228 -158 37 -2 84 -2 103 2 42 8 123 60 144 93 15 22 15 26 0 40
-14 14 -18 14 -43 -6 -36 -29 -121 -53 -160 -45 -55 10 -78 45 -82 124 l-4 69
158 3 159 3 -3 40 c-5 62 -48 124 -111 157 -72 38 -181 40 -256 4z m159 -39
c9 -7 20 -31 23 -54 5 -35 2 -43 -16 -53 -12 -6 -41 -10 -65 -8 l-43 3 12 49
c17 68 50 91 89 63z"/>
<path d="M6710 824 c0 -18 7 -25 28 -30 15 -4 33 -12 40 -17 8 -6 61 -105 118
-220 l105 -208 32 3 c31 3 35 9 127 195 52 105 101 199 109 208 8 9 31 24 50
33 24 11 36 24 36 37 0 19 -7 20 -117 22 -118 2 -118 2 -118 -22 0 -17 8 -26
30 -34 23 -7 30 -16 30 -35 0 -26 -79 -196 -91 -196 -10 0 -98 202 -93 214 3
7 18 17 35 23 21 8 30 17 27 30 -3 16 -18 18 -176 19 l-172 2 0 -24z"/>
</g>
</svg>
